<svg xmlns="http://www.w3.org/2000/svg" width="16.763" height="37.368" viewBox="0 0 16.763 37.368">
  <g id="growth-money-svgrepo-com" transform="translate(-141.06)">
    <path id="Pfad_9" data-name="Pfad 9" d="M247.636,254.548a.644.644,0,0,1-.645-.645,7.1,7.1,0,0,1,7.092-7.092.644.644,0,0,1,.645.645,7.1,7.1,0,0,1-7.092,7.092" transform="translate(-98.194 -228.785)" fill="#178443"/>
    <path id="Pfad_10" data-name="Pfad 10" d="M247.634,303.644a.645.645,0,0,1-.456-1.1l2.579-2.579a.645.645,0,1,1,.912.912l-2.579,2.579a.643.643,0,0,1-.456.189" transform="translate(-98.192 -277.88)" fill="#24ae5f"/>
    <path id="Pfad_11" data-name="Pfad 11" d="M165.808,254.548a7.1,7.1,0,0,1-7.092-7.092.644.644,0,0,1,.645-.645,7.1,7.1,0,0,1,7.092,7.092.644.644,0,0,1-.645.645" transform="translate(-16.366 -228.785)" fill="#178443"/>
    <g id="Gruppe_1" data-name="Gruppe 1" transform="translate(146.21 16.118)">
      <path id="Pfad_12" data-name="Pfad 12" d="M214.806,303.646a.643.643,0,0,1-.455-.188l-2.587-2.579a.645.645,0,1,1,.91-.913l2.587,2.579a.645.645,0,0,1-.455,1.1" transform="translate(-211.574 -294.001)" fill="#24ae5f"/>
      <path id="Pfad_13" data-name="Pfad 13" d="M247.636,233.557a.644.644,0,0,1-.645-.645V221.334a.645.645,0,0,1,1.29,0v11.579a.644.644,0,0,1-.645.645" transform="translate(-244.404 -220.689)" fill="#24ae5f"/>
    </g>
    <path id="Pfad_14" data-name="Pfad 14" d="M157.823,8.382A8.382,8.382,0,1,1,149.442,0a8.381,8.381,0,0,1,8.382,8.382" fill="#13a085"/>
    <g id="Gruppe_2" data-name="Gruppe 2" transform="translate(146.218 1.934)">
      <path id="Pfad_15" data-name="Pfad 15" d="M214.9,53.613a3.227,3.227,0,0,1-3.224-3.224.645.645,0,1,1,1.29,0,1.934,1.934,0,0,0,3.411,1.249.942.942,0,0,0,.214-.712,1.059,1.059,0,0,0-.4-.722l-3.372-2.622a2.353,2.353,0,0,1-.892-1.607,2.216,2.216,0,0,1,.512-1.678,3.224,3.224,0,0,1,5.685,2.081.645.645,0,1,1-1.29,0,1.934,1.934,0,0,0-3.411-1.248.94.94,0,0,0-.214.712,1.057,1.057,0,0,0,.4.722l3.372,2.623a2.351,2.351,0,0,1,.892,1.607,2.218,2.218,0,0,1-.512,1.678,3.22,3.22,0,0,1-2.462,1.142" transform="translate(-211.681 -41.936)" fill="#fff"/>
      <path id="Pfad_16" data-name="Pfad 16" d="M247.636,39.377a.644.644,0,0,1-.645-.645V27.127a.645.645,0,0,1,1.29,0V38.732a.644.644,0,0,1-.645.645" transform="translate(-244.412 -26.482)" fill="#fff"/>
    </g>
    <path id="Pfad_17" data-name="Pfad 17" d="M170.966,429.809H160.65l-1.934-6.447H172.9Z" transform="translate(-16.366 -392.441)" fill="#cb8252"/>
    <path id="Pfad_18" data-name="Pfad 18" d="M141.06,390.631h16.763v-2.579H141.06Z" transform="translate(0 -359.71)" fill="#805333"/>
  </g>
</svg>
