<svg id="growth-money-svgrepo-com_1_" data-name="growth-money-svgrepo-com(1)" xmlns="http://www.w3.org/2000/svg" width="32.923" height="32.923" viewBox="0 0 32.923 32.923">
  <path id="Pfad_1" data-name="Pfad 1" d="M256,179.957a3.4,3.4,0,0,0,3.406-3.406A3.4,3.4,0,0,0,256,179.957" transform="translate(-239.538 -165.198)" fill="#178443"/>
  <path id="Pfad_2" data-name="Pfad 2" d="M73.825,294.98a1.093,1.093,0,0,0,.2-1.475c-.711-.991-1.3-1.226-3.772.074l-4.924,3.01c-1.5.8-5.452.568-7.156.568,0,0,4.02.272,2.416-2.122a4.313,4.313,0,0,0-3.608-1.852H54.762a5.975,5.975,0,0,1-3.594-1.176c-2.4-1.814-7.031,1.744-7.031,1.744v10.218h7.947a22.473,22.473,0,0,0,3.387-.256l7.4-1.125a3.379,3.379,0,0,0,.735-.082l.012,0A2.909,2.909,0,0,0,65.2,301.7Z" transform="translate(-41.299 -272.748)" fill="#fdd7ad"/>
  <path id="Pfad_3" data-name="Pfad 3" d="M0,313.761H2.838V300.138H0Z" transform="translate(0 -280.838)" fill="#4482c3"/>
  <path id="Pfad_4" data-name="Pfad 4" d="M144.3,373.6a.567.567,0,0,1-.568-.568c0-1.422,1.061-2.271,2.838-2.271h5.516a.568.568,0,0,1,0,1.135H146.57c-1.7,0-1.7.854-1.7,1.135a.567.567,0,0,1-.568.568" transform="translate(-134.49 -346.918)" fill="#f9a671"/>
  <path id="Pfad_5" data-name="Pfad 5" d="M247.74,157.448a.567.567,0,0,1-.568-.568v-6.244a.568.568,0,0,1,1.135,0v6.244a.567.567,0,0,1-.568.568" transform="translate(-231.278 -140.419)" fill="#24ae5f"/>
  <path id="Pfad_6" data-name="Pfad 6" d="M125.124,249.87a.5.5,0,0,1,.355.106,5.976,5.976,0,0,0,3.594,1.176h2.214A4.313,4.313,0,0,1,134.9,253c1.215,1.814-.8,2.1-1.845,2.128.543.008,1.206.024,1.906.024a11.625,11.625,0,0,0,4.5-.6l4.924-3.01c.092-.048.175-.09.263-.134l-.656-1.965a11.55,11.55,0,0,0-1.7-1.135,24.218,24.218,0,0,0-4.541,0c-.71.142-2.2-2.058-2.838-1.7a45.5,45.5,0,0,1-5.109,1.135c-.284.071-6.419,1.7-6.419,1.7l-.014.028a2.915,2.915,0,0,1,1.756.393" transform="translate(-115.435 -230.718)" fill="#805333"/>
  <path id="Pfad_7" data-name="Pfad 7" d="M186.769,5.109A5.109,5.109,0,1,1,181.661,0a5.108,5.108,0,0,1,5.109,5.109" transform="translate(-165.199)" fill="#13a085"/>
  <path id="Pfad_8" data-name="Pfad 8" d="M230.869,40.987a1.612,1.612,0,0,1-1.7-1.7.568.568,0,1,1,1.135,0c0,.392.175.568.568.568a.71.71,0,0,0,.542-.251.217.217,0,0,0,.048-.167.272.272,0,0,0-.1-.186l-1.67-1.3a1.415,1.415,0,0,1-.536-.966,1.342,1.342,0,0,1,.311-1.017,1.842,1.842,0,0,1,1.409-.654,1.612,1.612,0,0,1,1.7,1.7.568.568,0,1,1-1.135,0c0-.392-.175-.568-.568-.568a.71.71,0,0,0-.542.251.216.216,0,0,0-.048.166.273.273,0,0,0,.1.187l1.669,1.3a1.416,1.416,0,0,1,.536.964,1.342,1.342,0,0,1-.311,1.018,1.842,1.842,0,0,1-1.409.654" transform="translate(-214.407 -33.04)" fill="#fff"/>
</svg>
