<svg xmlns="http://www.w3.org/2000/svg" width="29.55" height="28.531" viewBox="0 0 29.55 28.531">
  <g id="XMLID_76_" transform="translate(0 -1)">
    <path id="XMLID_112_" d="M31.822,32.834c-.638-.889-1.168-1.1-3.386.066l-4.419,2.7a6.111,6.111,0,0,1-2.211.476c0,.012.007.022.007.034a.509.509,0,0,1-.509.509H12.642c-1.528,0-1.528.767-1.528,1.019a.509.509,0,0,1-1.019,0c0-1.276.952-2.038,2.547-2.038H19.9c.273-.284.317-.722-.134-1.395a3.882,3.882,0,0,0-3.237-1.676H14.537a5.349,5.349,0,0,1-3.226-1.041C9.152,29.861,5,30,5,30V42.224h7.133a20.167,20.167,0,0,0,3.04-.23l6.641-1.009a3.034,3.034,0,0,0,.66-.074l.01,0a2.6,2.6,0,0,0,1.421-.723l7.742-6.029a.981.981,0,0,0,.176-1.323" transform="translate(-2.453 -14.222)" fill="#fac176"/>
    <path id="XMLID_111_" d="M30.231,42.006c-.186,0-.362-.006-.513-.006,0,0,.212.014.513.006" transform="translate(-14.577 -20.111)" fill="#2c91d0"/>
    <path id="XMLID_110_" d="M15,43.038a.509.509,0,0,0,1.019,0c0-.252,0-1.019,1.528-1.019h8.661a.509.509,0,0,0,.509-.509c0-.012-.006-.022-.007-.034-1.268.1-2.7.055-3.7.039-.3.01-.513-.005-.513-.005.151,0,.327,0,.513.005A2.836,2.836,0,0,0,24.8,41H17.547c-1.6,0-2.547.762-2.547,2.038" transform="translate(-7.358 -19.621)" fill="#e2ac69"/>
    <path id="XMLID_109_" d="M41.152,5.076A4.076,4.076,0,1,1,37.076,1a4.076,4.076,0,0,1,4.076,4.076" transform="translate(-16.187)" fill="#e4af18"/>
    <path id="XMLID_74_" d="M19.939,27.542a5.7,5.7,0,0,0,.974.087H22.9a4.089,4.089,0,0,1,.951.112,4.077,4.077,0,1,0-3.912-.2" transform="translate(-8.829 -9.32)" fill="#e4af18"/>
    <path id="XMLID_73_" d="M26.076,26.038A2.038,2.038,0,1,1,24.038,24a2.038,2.038,0,0,1,2.038,2.038" transform="translate(-10.791 -11.282)" fill="#fcc62d"/>
    <path id="XMLID_72_" d="M41.076,7.038A2.038,2.038,0,1,1,39.038,5a2.038,2.038,0,0,1,2.038,2.038" transform="translate(-18.149 -1.962)" fill="#fcc62d"/>
    <rect id="XMLID_75_" width="2.547" height="15.299" transform="translate(0 14.232)" fill="#556180"/>
  </g>
</svg>
